<?xml version="1.0" encoding="utf-8"?>
<!-- Generator: Adobe Illustrator 16.0.0, SVG Export Plug-In . SVG Version: 6.00 Build 0)  -->
<!DOCTYPE svg PUBLIC "-//W3C//DTD SVG 1.1//EN" "http://www.w3.org/Graphics/SVG/1.1/DTD/svg11.dtd">
<svg version="1.1" id="Layer_1" xmlns="http://www.w3.org/2000/svg" xmlns:xlink="http://www.w3.org/1999/xlink" x="0px" y="0px"
	 width="50px" height="50px" viewBox="0 0 50 50" enable-background="new 0 0 50 50" xml:space="preserve">
<path fill="#CDAA73" d="M29.331,13.235h-0.755l0,0h-1.03h-1.112l-1.682,2.021l1.881,0.725l0.307,0.117l0.204,0.316v0l1.255,1.934
	l3.6-3.697C30.95,13.492,29.331,13.235,29.331,13.235z"/>
<g>
	<path fill="#F2644C" d="M24.92,1.737c-0.526-0.527-1.384-0.528-1.912,0L8.36,16.386c-0.527,0.527-0.527,1.383,0,1.91l0.701,0.7
		L25.619,2.437L24.92,1.737z"/>
	<path fill="#F2644C" d="M11.671,21.608l4.969,4.968c0.526,0.526,1.381,0.526,1.91,0l14.646-14.648c0.529-0.528,0.529-1.384,0-1.911
		L28.23,5.048L11.671,21.608z"/>
	
		<rect x="6.936" y="10.176" transform="matrix(0.7071 -0.7071 0.7071 0.7071 -3.0402 16.7059)" fill="#2F2D2D" width="23.418" height="3.693"/>
	
		<rect x="12.232" y="14.348" transform="matrix(0.7071 -0.7071 0.7071 0.7071 -4.2408 19.6502)" fill="#FFFFFF" width="18.733" height="1.193"/>
	
		<rect x="14.226" y="16.686" transform="matrix(0.7071 -0.7071 0.7071 0.7071 -5.554 21.158)" fill="#FFFFFF" width="17.074" height="1.194"/>
</g>
<path fill="#C5A46E" d="M22.241,24.718l-2.097-1.591c-0.281-0.114-0.851,0.076-1.264,0.246c0.055,0.333,0.362,0.52,0.362,0.52
	l1.81,1.791C21.689,25.332,22.241,24.718,22.241,24.718z"/>
<path fill="#E6BE80" d="M32.091,14.75c-0.029-0.036-0.061-0.068-0.093-0.101l-3.6,3.697l2.21,3.408
	c1.346,2.829-0.908,4.006-0.908,4.006c-1.415,1.045-3.873-1.009-3.873-1.009c-3.503-3.906-6.87-1.818-6.87-1.818
	c-0.084,0.166-0.099,0.312-0.077,0.438c0.413-0.17,0.982-0.36,1.264-0.246l2.097,1.591c0,0-0.552,0.614-1.189,0.965l4.372,4.322
	c-0.201,2.223,1.614,4.783,1.614,4.783l1.441,1.939c0.8-0.523,2.236-1.577,4.452-2.089l1.519-17.432L32.091,14.75z"/>
<path fill="#D0AD74" d="M37.977,34.323l-0.295-2.296l1.043-8.252c0.168-2.088-0.909-3.065-0.909-3.065l-3.365-3.503L32.932,34.64
	C34.364,34.307,36.063,34.138,37.977,34.323z"/>
<path fill="#BB9C67" d="M32.932,34.64l-0.212,2.42l5.566-0.318l-0.31-2.418C36.063,34.138,34.364,34.307,32.932,34.64z"/>
<path fill="#BB9C67" d="M28.479,36.729l0.373,0.551l3.867-0.22l0.212-2.42C30.716,35.151,29.279,36.205,28.479,36.729z"/>
<g>
	<defs>
		<circle id="SVGID_1_" cx="24.621" cy="27.242" r="22.676"/>
	</defs>
	<clipPath id="SVGID_2_">
		<use xlink:href="#SVGID_1_"  overflow="visible"/>
	</clipPath>
	<g clip-path="url(#SVGID_2_)">
		<path fill="#FDFBFD" d="M26.91,38.352l1.592,6.878l8.1-1.872l-1.942-8.409C29.817,35.76,26.91,38.352,26.91,38.352z"/>
		<path fill="#CECED1" d="M41.126,35.064c-2.408-0.479-4.585-0.431-6.467-0.116l1.942,8.409l6.113-1.414L41.126,35.064z"/>
		<path fill="#2F2D2D" d="M38.695,36.867l-0.507,0.117l10.141,43.87l0.505-0.117c2.796-0.646,4.537-3.436,3.892-6.229l-7.798-33.748
			C44.278,37.964,41.491,36.222,38.695,36.867z"/>
		<path fill="#4F4B4C" d="M30.256,38.817c-2.793,0.646-4.537,3.437-3.89,6.231l7.799,33.748c0.646,2.796,3.437,4.538,6.234,3.893
			l7.93-1.835l-10.141-43.87L30.256,38.817z"/>
	</g>
</g>
</svg>
