<?xml version="1.0" encoding="utf-8"?>
<!-- Generator: Adobe Illustrator 16.0.0, SVG Export Plug-In . SVG Version: 6.00 Build 0)  -->
<!DOCTYPE svg PUBLIC "-//W3C//DTD SVG 1.1//EN" "http://www.w3.org/Graphics/SVG/1.1/DTD/svg11.dtd">
<svg version="1.1" id="Layer_1" xmlns="http://www.w3.org/2000/svg" xmlns:xlink="http://www.w3.org/1999/xlink" x="0px" y="0px"
	 width="50px" height="50px" viewBox="0 0 50 50" enable-background="new 0 0 50 50" xml:space="preserve">
<path fill="#337AB7" d="M34.671,3.12H2.123c-1.144,0-2.08,0.936-2.08,2.08v42.635c0,1.144,0.936,2.079,2.08,2.079h32.548
	c1.144,0,2.079-0.936,2.079-2.079V5.199C36.75,4.056,35.814,3.12,34.671,3.12z"/>
<rect x="2.799" y="5.894" fill="#FFFFFF" width="31.092" height="41.178"/>
<path fill="#FF7058" d="M25.416,0H11.378C10.13,0,9.09,1.04,9.09,2.184v5.719H27.6V2.184C27.703,1.04,26.664,0,25.416,0z"/>
<g>
	<rect x="13.666" y="12.687" fill="#4CDBC4" width="18.094" height="2.392"/>
	<rect x="13.666" y="21.109" fill="#4CDBC4" width="18.094" height="2.392"/>
	<rect x="13.666" y="29.532" fill="#4CDBC4" width="18.094" height="2.392"/>
	<rect x="13.666" y="37.955" fill="#4CDBC4" width="18.094" height="2.392"/>
</g>
<g>
	<rect x="4.931" y="36.291" fill="#CDD6E0" width="5.719" height="5.719"/>
	<rect x="4.931" y="27.868" fill="#CDD6E0" width="5.719" height="5.72"/>
	<rect x="4.931" y="19.445" fill="#CDD6E0" width="5.719" height="5.719"/>
	<rect x="4.931" y="11.022" fill="#CDD6E0" width="5.719" height="5.719"/>
</g>
<g>
	<polygon fill="#40596B" points="7.01,15.702 5.659,14.246 6.387,13.518 7.01,14.142 9.09,12.167 9.818,12.894 	"/>
	<polygon fill="#40596B" points="7.114,24.021 5.763,22.669 6.49,21.941 7.114,22.565 9.194,20.589 9.922,21.317 	"/>
</g>
<g>
	<path fill="#334A5E" d="M42.262,41.179h-3.64l5.72,8.11c0.52,0.624,1.352,0.832,2.079,0.313c0.624-0.52,0.832-1.352,0.416-2.08
		L42.262,41.179z"/>
	<path fill="#334A5E" d="M34.15,41.179l-4.471,6.446c-0.52,0.625-0.313,1.561,0.416,2.08c0.623,0.52,1.56,0.313,2.079-0.312
		l5.72-8.11H34.15V41.179z"/>
</g>
<ellipse fill="#40596B" cx="38.206" cy="37.539" rx="11.751" ry="11.646"/>
<path fill="#F2F2F2" d="M38.206,46.898c-5.199,0-9.358-4.16-9.358-9.359s4.264-9.359,9.358-9.359c5.2,0,9.358,4.16,9.358,9.359
	C47.564,42.635,43.406,46.898,38.206,46.898z"/>
<g>
	<ellipse fill="#FF7058" cx="38.206" cy="29.74" rx="0.832" ry="0.832"/>
	<ellipse fill="#FF7058" cx="38.206" cy="45.234" rx="0.832" ry="0.832"/>
	<ellipse fill="#FF7058" cx="46.006" cy="37.539" rx="0.832" ry="0.832"/>
	<ellipse fill="#FF7058" cx="30.407" cy="37.539" rx="0.832" ry="0.832"/>
</g>
<g>
	<path fill="#337AB7" d="M37.895,37.539L37.895,37.539c0-0.313,0.313-0.624,0.623-0.624h3.536c0.312,0,0.624,0.312,0.624,0.624l0,0
		c0,0.313-0.313,0.624-0.624,0.624h-3.536C38.206,38.059,37.895,37.852,37.895,37.539z"/>
	<path fill="#337AB7" d="M38.206,31.195L38.206,31.195c0.312,0,0.624,0.313,0.624,0.625v5.615c0,0.312-0.313,0.623-0.624,0.623l0,0
		c-0.312,0-0.624-0.313-0.624-0.623V31.82C37.582,31.508,37.895,31.195,38.206,31.195z"/>
</g>
<ellipse fill="#FF7058" cx="38.206" cy="37.539" rx="1.456" ry="1.456"/>
<path fill="#337AB7" d="M34.566,23.397l10.607-10.503l-4.783-4.783L29.783,18.613c-0.104,0.104-0.104,0.208-0.208,0.208
	c0,0.104-0.104,0.208-0.104,0.208l-0.104,0.208l-0.936,3.536l-0.624,2.496l2.495-0.624l3.641-0.936l0.207-0.104
	c0.104,0,0.209-0.104,0.209-0.104S34.463,23.397,34.566,23.397z"/>
<g>
	<path fill="#FF7058" d="M30.615,20.589L41.742,9.463l-1.456-1.456L29.783,18.613c-0.104,0.104-0.104,0.208-0.208,0.208
		c0,0.104-0.104,0.208-0.104,0.208l-0.104,0.208L30.615,20.589z"/>
	<path fill="#FF7058" d="M34.566,23.397l10.607-10.503l-1.456-1.456L32.591,22.461l1.248,1.248l0.208-0.104
		c0.104,0,0.208-0.104,0.208-0.104C34.359,23.501,34.463,23.397,34.566,23.397z"/>
</g>
<polygon fill="#334A5E" points="30.199,24.645 28.432,22.877 27.703,25.373 "/>
<path fill="#40596B" d="M49.229,5.719l-1.871-1.872c-0.832-0.832-2.184-0.832-2.912,0l-2.703,2.704l4.783,4.783l2.703-2.704
	C50.061,7.903,50.061,6.551,49.229,5.719z"/>
<polygon fill="#F1543F" points="30.615,20.589 41.742,9.463 43.718,11.438 32.591,22.461 "/>
<polygon fill="#337AB7" points="41.742,6.655 46.525,11.438 45.069,12.894 40.286,8.111 "/>
</svg>
