<?xml version="1.0" encoding="utf-8"?>
<!-- Generator: Adobe Illustrator 16.0.0, SVG Export Plug-In . SVG Version: 6.00 Build 0)  -->
<!DOCTYPE svg PUBLIC "-//W3C//DTD SVG 1.1//EN" "http://www.w3.org/Graphics/SVG/1.1/DTD/svg11.dtd">
<svg version="1.1" id="Capa_1" xmlns="http://www.w3.org/2000/svg" xmlns:xlink="http://www.w3.org/1999/xlink" x="0px" y="0px"
	 width="50px" height="50px" viewBox="0 0 50 50" enable-background="new 0 0 50 50" xml:space="preserve">
<g>
	<g>
		<path fill="#FFFFFF" d="M48.091,9.248L17.468,2.767c-1.295-0.274-2.58,0.562-2.854,1.857l-0.582,3.739l35.333,7.477l0.581-3.739
			C50.223,10.807,49.387,9.522,48.091,9.248z"/>
		<path fill="#FFFFFF" d="M35.213,16.633c-0.357-1.288-1.703-2.049-2.99-1.692l-5.814,1.614l-13.704-2.9l-1.507,7.122L1.78,23.39
			c-1.288,0.357-2.049,1.703-1.692,2.991l5.307,19.124c0.358,1.288,1.704,2.05,2.992,1.692l30.441-8.449
			c1.288-0.357,2.049-1.703,1.692-2.99l-0.911-3.283l3.414,0.721c1.296,0.275,2.58-0.561,2.854-1.856l2.16-10.207L35.74,18.529
			L35.213,16.633z M38.729,26.354l0.754-3.559c0.112-0.533,0.641-0.876,1.174-0.764l3.558,0.753
			c0.534,0.113,0.877,0.641,0.765,1.174l-0.753,3.558c-0.113,0.532-0.642,0.877-1.174,0.764l-3.559-0.753
			C38.959,27.414,38.615,26.886,38.729,26.354z M2.31,25.298l8.425-2.337l19.877-5.516l2.139-0.594
			c0.039-0.011,0.078-0.016,0.117-0.016c0.171,0,0.377,0.113,0.436,0.328l0.252,0.904l0.787,2.835L3.035,29.59l-1.038-3.738
			C1.932,25.617,2.075,25.363,2.31,25.298z M38.611,36.286c0.04,0.146-0.002,0.265-0.045,0.341
			c-0.041,0.074-0.123,0.173-0.268,0.213L7.857,45.287c-0.039,0.011-0.078,0.017-0.116,0.017c-0.171,0-0.377-0.113-0.437-0.329
			L4.209,33.82l31.307-8.688l1.909,6.88L38.611,36.286z"/>
		<path fill="#FFFFFF" d="M12.776,37.05c-0.146-0.525-0.694-0.835-1.22-0.69l-3.555,0.987c-0.525,0.146-0.835,0.694-0.689,1.22
			l0.986,3.555c0.146,0.525,0.694,0.836,1.22,0.689l3.555-0.986c0.525-0.146,0.835-0.695,0.69-1.22L12.776,37.05z"/>
	</g>
</g>
</svg>
